<svg xmlns="http://www.w3.org/2000/svg" width="132.972" height="29.344" viewBox="0 0 132.972 29.344"><g data-name="Grupo 1" fill="#fff"><path data-name="Trazado 1" d="M19.343 8.77c0 5.021-4.134 8.793-9.671 8.793S0 13.79 0 8.77c0-5 4.134-8.7 9.672-8.7s9.671 3.727 9.671 8.7zm-14.546.024a4.941 4.941 0 0 0 4.925 4.948 4.923 4.923 0 1 0-4.925-4.948z"/><path data-name="Trazado 2" d="M33.277 17.366l-4.644-6.638-2.3 2.45v4.188h-4.67V.196h4.67v7.2l6.711-7.2h5.411l-6.635 7.1 7.043 10.066z"/><path data-name="Trazado 3" d="M54.892.196v3.579h-9.444v3.209h8.524v3.551l-8.524.025v3.233h9.7v3.576H40.78V.196z"/><path data-name="Trazado 4" d="M67.396 11.875v5.487h-4.671v-5.359L56.141.196h4.67l4.236 7.372L69.181.196h4.67z"/><path data-name="Trazado 5" d="M80.563.196l4.747 10.018L90.057.196h5.1v17.17h-4.134l-.026-10.874-4.159 9.16h-3.062l-4.159-9.16v10.874h-4.159V.196z"/><path data-name="Trazado 6" d="M110.549 14.329h-7.733l-1.249 3.037h-4.8l7.681-17.17h4.8l7.5 17.17h-4.976zm-1.378-3.429l-2.45-6.123-2.5 6.123z"/><path data-name="Trazado 7" d="M124.84 3.65c-1.123 0-1.863.392-1.863 1.175 0 2.841 9.416 1.225 9.416 7.4 0 3.5-3.215 5.291-7.2 5.291a13.807 13.807 0 0 1-8.244-2.743l1.813-3.5a11.674 11.674 0 0 0 6.481 2.6c1.378 0 2.246-.489 2.246-1.4 0-2.915-9.416-1.151-9.416-7.226 0-3.208 2.833-5.242 7.145-5.242a14.153 14.153 0 0 1 7.145 1.936l-1.756 3.542a14.319 14.319 0 0 0-5.767-1.833z"/><path data-name="Trazado 8" d="M5.214 22.665l-.01 1.238H1.82v1.625h3.11v1.246H1.82v2.5H.264v-6.609z"/><path data-name="Trazado 9" d="M13.887 22.665v6.613h-1.555v-6.613z"/><path data-name="Trazado 10" d="M26.703 22.665v1.266h-2.106v5.347h-1.556v-5.347h-2.1v-1.266z"/><path data-name="Trazado 11" d="M35.169 22.665l3.346 4.252v-4.252h1.476v6.613h-1.418l-3.341-4.241v4.241h-1.486v-6.613z"/><path data-name="Trazado 12" d="M52.966 22.665v1.238h-3.69v1.436h3.318v1.238h-3.318v1.464h3.8v1.238h-5.354v-6.614z"/><path data-name="Trazado 13" d="M62.896 23.873c-.521 0-.876.18-.876.539 0 1.218 3.671.538 3.662 2.919 0 1.294-1.172 1.994-2.7 1.994a4.961 4.961 0 0 1-3.042-1.049l.62-1.219a4.172 4.172 0 0 0 2.441.992c.639 0 1.024-.227 1.024-.633 0-1.246-3.671-.519-3.671-2.862 0-1.2 1.073-1.956 2.667-1.956a5.066 5.066 0 0 1 2.618.719l-.6 1.237a4.954 4.954 0 0 0-2.143-.681z"/><path data-name="Trazado 14" d="M75.377 23.873c-.522 0-.876.18-.876.539 0 1.218 3.671.538 3.662 2.919 0 1.294-1.171 1.994-2.7 1.994a4.958 4.958 0 0 1-3.041-1.049l.62-1.219a4.169 4.169 0 0 0 2.44.992c.64 0 1.024-.227 1.024-.633 0-1.246-3.671-.519-3.671-2.862 0-1.2 1.073-1.956 2.667-1.956a5.071 5.071 0 0 1 2.618.719l-.6 1.237a4.95 4.95 0 0 0-2.143-.681z"/><path data-name="Trazado 15" d="M91.917 23.912a2.037 2.037 0 1 0 0 4.072 2.714 2.714 0 0 0 1.791-.774l.915.953a4.115 4.115 0 0 1-2.786 1.181 3.374 3.374 0 1 1 .06-6.726 4 4 0 0 1 2.716 1.1l-.9 1.058a2.538 2.538 0 0 0-1.796-.864z"/><path data-name="Trazado 16" d="M103.315 22.665v5.31h2.953v1.3h-4.508v-6.61z"/><path data-name="Trazado 17" d="M116.41 28.04a1.428 1.428 0 0 0 1.536-1.53v-3.845h1.555v3.845c0 1.747-1.191 2.834-3.091 2.834s-3.129-1.087-3.129-2.834v-3.845h1.555v3.845a1.458 1.458 0 0 0 1.574 1.53z"/><path data-name="Trazado 18" d="M132.726 24.318a1.478 1.478 0 0 1-1.192 1.455 1.635 1.635 0 0 1 1.438 1.672c0 1.134-1 1.833-2.6 1.833h-3.277v-6.613h3.17c1.516 0 2.461.633 2.461 1.653zm-1.6.274c0-.453-.354-.718-.945-.707h-1.531v1.444h1.536c.591 0 .945-.274.945-.737zm.237 2.664c0-.481-.454-.774-1.182-.765h-1.531v1.568h1.536c.728 0 1.182-.294 1.182-.803z"/></g></svg>