<?xml version="1.0" encoding="UTF-8"?>
<svg xmlns="http://www.w3.org/2000/svg" version="1.1" viewBox="0 0 512 512">
  <defs>
    <style>
      .cls-1 {
        fill: #f1600d;
      }
    </style>
  </defs>
  <!-- Generator: Adobe Illustrator 28.7.1, SVG Export Plug-In . SVG Version: 1.2.0 Build 142)  -->
  <g>
    <g id="Layer_1">
      <g>
        <circle class="cls-1" cx="88.2" cy="91.7" r="43.7" transform="translate(-30.3 138.1) rotate(-67.5)"/>
        <path class="cls-1" d="M256,0h0c-6.7,0-13.3.3-19.9.8v44.2c6.6-.6,13.2-.9,19.9-.9,56.6,0,109.9,22.1,149.9,62.1s62.1,93.3,62.1,149.9-22.1,109.9-62.1,149.9-93.3,62.1-149.9,62.1-109.9-22.1-149.9-62.1-62.1-93.3-62.1-149.9.4-15.6,1.3-23.3H1.1c-.7,7.7-1.1,15.4-1.1,23.3h0c0,141.4,114.6,256,256,256h0c141.4,0,256-114.6,256-256h0C512,114.6,397.4,0,256,0Z"/>
      </g>
    </g>
  </g>
</svg>